<svg width="285" height="86" viewBox="0 0 285 86" fill="none" xmlns="http://www.w3.org/2000/svg">
<path d="M284.999 42.0519C284.999 41.1034 284.363 40.4708 283.41 40.4708C271.336 40.7866 244.013 42.0519 211.922 43.3163L211.923 42.0519C211.923 38.2578 209.063 35.0964 205.568 34.7796H205.251C205.251 34.7796 161.088 29.7211 156.003 28.7726H148.377V27.1914C148.377 22.7646 145.2 18.9705 141.069 18.022L103.259 6.95553H88.3259L73.0751 0H61.0012L63.225 2.2129H68.3083L77.5226 7.90406L52.7401 21.1834H136.936C141.066 21.1834 144.244 24.3449 144.562 28.4558H42.2575H41.9401C41.6227 28.4558 40.987 28.4558 40.6696 28.7716L25.4188 34.1469L18.4291 42.051L204.298 38.8896C206.522 38.8896 208.111 40.4707 208.111 42.6837V43.6322C167.441 44.8975 126.772 46.4778 123.595 46.4778C122.325 46.4778 121.371 47.1104 120.736 47.7422L115.017 53.4333C114.699 53.7492 114.063 54.066 113.428 54.066H12.3913H8.89597C6.67222 54.066 5.08328 55.6472 5.08328 57.8601V75.5662L0.953174 77.4633L0 86H234.164C234.164 86 247.508 71.4562 259.9 61.6537C268.478 55.014 284.046 43.6317 284.365 43.6317C284.683 43 285 42.6832 285 42.0514L284.999 42.0519ZM155.05 65.1324C152.827 65.1324 150.92 63.2354 150.92 61.0225C150.92 58.8095 152.827 56.9125 155.05 56.9125C157.274 56.9125 159.181 58.8095 159.181 61.0225C159.181 63.2354 157.593 65.1324 155.05 65.1324ZM182.693 64.8166C180.469 64.8166 178.562 62.9195 178.562 60.7066C178.562 58.4937 180.469 56.5966 182.693 56.5966C184.916 56.5966 186.823 58.4937 186.823 60.7066C186.823 62.9195 184.916 64.8166 182.693 64.8166ZM210.018 64.4998C207.794 64.4998 205.888 62.6027 205.888 60.3898C205.888 58.1769 207.794 56.2799 210.018 56.2799C212.241 56.2799 214.148 58.1769 214.148 60.3898C214.148 62.6027 212.241 64.4998 210.018 64.4998Z" fill="black"/>
</svg>
